<svg width="458" height="256" viewBox="0 0 458 256" fill="none" xmlns="http://www.w3.org/2000/svg">
<rect x="0.857178" width="457.143" height="256" rx="8" fill="#FFC8A3"/>
<path d="M293.84 133.211H196.011C190.846 133.211 186.686 129.051 186.686 123.886V61.7143C186.686 56.5486 190.846 52.3886 196.011 52.3886H293.84C299.006 52.3886 303.166 56.5486 303.166 61.7143V123.886C303.166 129.051 299.006 133.211 293.84 133.211Z" fill="white"/>
<path d="M218.64 105.874C217.954 105.874 217.406 105.326 217.406 104.64V65.7371C217.406 65.0514 217.954 64.5029 218.64 64.5029C219.326 64.5029 219.874 65.0514 219.874 65.7371V104.64C219.874 105.326 219.326 105.874 218.64 105.874Z" fill="#F3F2F2"/>
<path d="M218.64 111.223C217.954 111.223 217.406 110.674 217.406 109.989V71.1314C217.406 70.4457 217.954 69.8971 218.64 69.8971C219.326 69.8971 219.874 70.4457 219.874 71.1314V110.034C219.874 110.674 219.326 111.223 218.64 111.223Z" fill="#F06365"/>
<path d="M218.64 111.223C217.954 111.223 217.406 110.674 217.406 109.989V90.1486C217.406 89.4629 217.954 88.9143 218.64 88.9143C219.326 88.9143 219.874 89.4629 219.874 90.1486V109.989C219.874 110.674 219.326 111.223 218.64 111.223Z" fill="#9B1C2E"/>
<path d="M232.4 105.874C231.714 105.874 231.166 105.326 231.166 104.64V65.7371C231.166 65.0514 231.714 64.5029 232.4 64.5029C233.086 64.5029 233.634 65.0514 233.634 65.7371V104.64C233.634 105.326 233.086 105.874 232.4 105.874Z" fill="#F3F2F2"/>
<path d="M232.4 111.223C231.714 111.223 231.166 110.674 231.166 109.989V84.8C231.166 84.1143 231.714 83.5657 232.4 83.5657C233.086 83.5657 233.634 84.1143 233.634 84.8V109.989C233.634 110.674 233.086 111.223 232.4 111.223Z" fill="#F06365"/>
<path d="M232.4 111.223C231.714 111.223 231.166 110.674 231.166 109.989V97.2343C231.166 96.5486 231.714 96 232.4 96C233.086 96 233.634 96.5486 233.634 97.2343V109.989C233.634 110.674 233.086 111.223 232.4 111.223Z" fill="#9B1C2E"/>
<path d="M259.28 105.874C258.594 105.874 258.045 105.326 258.045 104.64V65.7371C258.045 65.0514 258.594 64.5029 259.28 64.5029C259.965 64.5029 260.514 65.0514 260.514 65.7371V104.64C260.514 105.326 259.965 105.874 259.28 105.874Z" fill="#F3F2F2"/>
<path d="M259.28 111.223C258.594 111.223 258.045 110.674 258.045 109.989V81.6C258.045 80.9143 258.594 80.3657 259.28 80.3657C259.965 80.3657 260.514 80.9143 260.514 81.6V110.034C260.514 110.674 259.965 111.223 259.28 111.223Z" fill="#F06365"/>
<path d="M259.28 111.223C258.594 111.223 258.045 110.674 258.045 109.989V89.2343C258.045 88.5486 258.594 88 259.28 88C259.965 88 260.514 88.5486 260.514 89.2343V109.989C260.514 110.674 259.965 111.223 259.28 111.223Z" fill="#9B1C2E"/>
<path d="M245.885 105.874C245.2 105.874 244.651 105.326 244.651 104.64V65.7371C244.651 65.0514 245.2 64.5029 245.885 64.5029C246.571 64.5029 247.12 65.0514 247.12 65.7371V104.64C247.12 105.326 246.571 105.874 245.885 105.874Z" fill="#F3F2F2"/>
<path d="M245.885 111.223C245.2 111.223 244.651 110.674 244.651 109.989V85.3486C244.651 84.6629 245.2 84.1143 245.885 84.1143C246.571 84.1143 247.12 84.6629 247.12 85.3486V109.989C247.12 110.674 246.571 111.223 245.885 111.223Z" fill="#9B1C2E"/>
<path d="M272.72 105.874C272.034 105.874 271.486 105.326 271.486 104.64V65.7371C271.486 65.0514 272.034 64.5029 272.72 64.5029C273.406 64.5029 273.954 65.0514 273.954 65.7371V104.64C273.954 105.326 273.406 105.874 272.72 105.874Z" fill="#F3F2F2"/>
<path d="M272.72 111.223C272.034 111.223 271.486 110.674 271.486 109.989V74.0114C271.486 73.3257 272.034 72.7771 272.72 72.7771C273.406 72.7771 273.954 73.3257 273.954 74.0114V109.989C273.954 110.674 273.406 111.223 272.72 111.223Z" fill="#9B1C2E"/>
<path d="M236.606 124.663H229.063C227.966 124.663 227.097 123.794 227.097 122.697C227.097 121.6 227.966 120.731 229.063 120.731H236.606C237.703 120.731 238.571 121.6 238.571 122.697C238.571 123.794 237.703 124.663 236.606 124.663Z" fill="#9B1C2E"/>
<path d="M260.285 124.663H252.743C251.645 124.663 250.777 123.794 250.777 122.697C250.777 121.6 251.645 120.731 252.743 120.731H260.285C261.383 120.731 262.251 121.6 262.251 122.697C262.251 123.794 261.383 124.663 260.285 124.663Z" fill="#F06365"/>
<path d="M349.84 170.377H308.834C304.263 170.377 300.514 166.674 300.514 162.057C300.514 157.486 304.217 153.737 308.834 153.737H349.84C354.411 153.737 358.16 157.44 358.16 162.057C358.114 166.629 354.411 170.377 349.84 170.377Z" fill="#9B1C2E"/>
<path d="M345.086 164.206H322.777C321.726 164.206 320.903 163.337 320.903 162.331C320.903 161.28 321.771 160.457 322.777 160.457H345.086C346.137 160.457 346.96 161.326 346.96 162.331C346.96 163.337 346.137 164.206 345.086 164.206Z" fill="#F06365"/>
<path d="M310.708 166.949C313.385 166.949 315.554 164.779 315.554 162.103C315.554 159.427 313.385 157.257 310.708 157.257C308.032 157.257 305.863 159.427 305.863 162.103C305.863 164.779 308.032 166.949 310.708 166.949Z" fill="#F06365"/>
<path d="M377.497 145.097H319.623C316.56 145.097 314.091 142.629 314.091 139.566V102.811C314.091 99.7486 316.56 97.28 319.623 97.28H377.451C380.514 97.28 382.983 99.7486 382.983 102.811V139.566C383.028 142.629 380.56 145.097 377.497 145.097Z" fill="white"/>
<path fill-rule="evenodd" clip-rule="evenodd" d="M328.857 129.349C328.415 129.349 328.057 129.707 328.057 130.149C328.057 130.59 328.415 130.949 328.857 130.949C329.299 130.949 329.657 130.59 329.657 130.149C329.657 129.707 329.299 129.349 328.857 129.349ZM326.914 130.149C326.914 129.076 327.784 128.206 328.857 128.206C329.93 128.206 330.8 129.076 330.8 130.149C330.8 131.222 329.93 132.091 328.857 132.091C327.784 132.091 326.914 131.222 326.914 130.149Z" fill="#F89142"/>
<path fill-rule="evenodd" clip-rule="evenodd" d="M344.263 117.326C343.821 117.326 343.463 117.684 343.463 118.126C343.463 118.568 343.821 118.926 344.263 118.926C344.705 118.926 345.063 118.568 345.063 118.126C345.063 117.684 344.705 117.326 344.263 117.326ZM342.32 118.126C342.32 117.053 343.19 116.183 344.263 116.183C345.336 116.183 346.206 117.053 346.206 118.126C346.206 119.199 345.336 120.069 344.263 120.069C343.19 120.069 342.32 119.199 342.32 118.126Z" fill="#F89142"/>
<path fill-rule="evenodd" clip-rule="evenodd" d="M368.948 112.069C368.506 112.069 368.148 112.427 368.148 112.869C368.148 113.31 368.506 113.669 368.948 113.669C369.39 113.669 369.748 113.31 369.748 112.869C369.748 112.427 369.39 112.069 368.948 112.069ZM367.005 112.869C367.005 111.796 367.875 110.926 368.948 110.926C370.021 110.926 370.891 111.796 370.891 112.869C370.891 113.942 370.021 114.811 368.948 114.811C367.875 114.811 367.005 113.942 367.005 112.869Z" fill="#F89142"/>
<path fill-rule="evenodd" clip-rule="evenodd" d="M354.548 123.451C354.106 123.451 353.748 123.81 353.748 124.251C353.748 124.693 354.106 125.051 354.548 125.051C354.99 125.051 355.348 124.693 355.348 124.251C355.348 123.81 354.99 123.451 354.548 123.451ZM352.605 124.251C352.605 123.178 353.475 122.309 354.548 122.309C355.621 122.309 356.491 123.178 356.491 124.251C356.491 125.324 355.621 126.194 354.548 126.194C353.475 126.194 352.605 125.324 352.605 124.251Z" fill="#F89142"/>
<path fill-rule="evenodd" clip-rule="evenodd" d="M366.837 114.525C367.032 114.773 366.99 115.132 366.743 115.328L357.554 122.597C357.307 122.793 356.948 122.751 356.752 122.503C356.556 122.256 356.598 121.896 356.845 121.7L366.034 114.432C366.281 114.236 366.641 114.278 366.837 114.525Z" fill="#F06365"/>
<path fill-rule="evenodd" clip-rule="evenodd" d="M346.652 119.524C346.814 119.253 347.165 119.165 347.436 119.327L351.87 121.978C352.141 122.14 352.229 122.491 352.067 122.762C351.905 123.033 351.554 123.121 351.284 122.959L346.849 120.308C346.578 120.146 346.49 119.795 346.652 119.524Z" fill="#F06365"/>
<path fill-rule="evenodd" clip-rule="evenodd" d="M342.108 119.786C342.302 120.035 342.257 120.394 342.008 120.588L331.905 128.451C331.656 128.645 331.297 128.6 331.103 128.351C330.909 128.102 330.954 127.743 331.203 127.549L341.306 119.686C341.555 119.492 341.914 119.537 342.108 119.786Z" fill="#F06365"/>
<path d="M321.726 87.36H290.411C288.72 87.36 287.348 85.9886 287.348 84.2971V39.6343C287.348 37.9429 288.72 36.5714 290.411 36.5714H315.783L324.788 45.5771V84.2971C324.788 85.9886 323.417 87.36 321.726 87.36Z" fill="#9B1C2E"/>
<path d="M324.788 45.5771H318.48C317.017 45.5771 315.783 44.3886 315.783 42.88V36.5714L324.788 45.5771Z" fill="#500715"/>
<path d="M318.571 60.8914C318.571 60.8 318.571 60.7086 318.571 60.5714C318.571 54.5371 313.68 49.6457 307.646 49.6457V60.8457H318.571V60.8914Z" fill="#F89142"/>
<path d="M306.046 62.2171V51.0171C300.011 51.0171 295.12 55.9086 295.12 61.9429C295.12 67.9771 300.011 72.8686 306.046 72.8686C311.988 72.8686 316.788 68.16 316.971 62.2629H306.046V62.2171Z" fill="#FFC8A3"/>
<path d="M286.891 173.714C288.537 173.714 289.909 172.434 289.909 170.789V146.377C289.909 144.777 288.583 143.451 286.891 143.451H237.611C235.966 143.451 234.594 144.731 234.594 146.377V170.834C234.594 172.434 235.92 173.76 237.611 173.76L286.891 173.714Z" fill="#F89142"/>
<path d="M247.851 158.491C249.619 158.491 251.051 157.059 251.051 155.291C251.051 153.524 249.619 152.091 247.851 152.091C246.084 152.091 244.651 153.524 244.651 155.291C244.651 157.059 246.084 158.491 247.851 158.491Z" fill="#99290A"/>
<path d="M242.411 164.8C242.411 161.829 244.88 159.451 247.943 159.451C251.006 159.451 253.474 161.874 253.474 164.8H242.411Z" fill="#99290A"/>
<path d="M270.297 156.709H259.874C258.823 156.709 258 155.84 258 154.834C258 153.783 258.869 152.96 259.874 152.96H270.297C271.349 152.96 272.171 153.829 272.171 154.834C272.171 155.886 271.349 156.709 270.297 156.709Z" fill="#99290A"/>
<path d="M280.903 163.703H259.874C258.823 163.703 258 162.834 258 161.829C258 160.777 258.869 159.954 259.874 159.954H280.903C281.954 159.954 282.777 160.823 282.777 161.829C282.823 162.834 281.954 163.703 280.903 163.703Z" fill="#99290A"/>
<path d="M151.348 255.817H76.2856V204.16C76.2856 193.874 84.6056 185.554 94.8914 185.554H151.348V255.817Z" fill="#002F24"/>
<path d="M140.926 153.783H198.754C209.726 153.783 219.417 160.914 222.663 171.383L248.857 255.817H112.537C101.977 255.817 94.2972 245.76 97.0858 235.52L114.046 174.171C117.383 162.149 128.4 153.783 140.926 153.783Z" fill="#005E41"/>
<path d="M174.297 237.349L182.114 238.446L200.491 233.234C202.686 232.64 205.017 233.006 206.846 234.286L224.263 246.491V249.829H221.017L220.971 251.611H200.446L193.543 250.56C193.543 250.56 192.126 254.537 183.486 255.909H171.92L174.297 237.349Z" fill="#FFF1E3"/>
<path fill-rule="evenodd" clip-rule="evenodd" d="M196.618 244.323C196.78 244.053 197.131 243.965 197.402 244.127L207.779 250.344C208.05 250.506 208.138 250.857 207.976 251.128C207.814 251.399 207.463 251.487 207.192 251.324L196.815 245.107C196.544 244.945 196.456 244.594 196.618 244.323Z" fill="#4F1600"/>
<path fill-rule="evenodd" clip-rule="evenodd" d="M192.649 247.42C192.817 247.153 193.17 247.074 193.437 247.243L197.551 249.849C197.818 250.018 197.897 250.371 197.728 250.637C197.56 250.904 197.206 250.983 196.94 250.814L192.826 248.208C192.559 248.04 192.48 247.687 192.649 247.42Z" fill="#4F1600"/>
<path fill-rule="evenodd" clip-rule="evenodd" d="M202.167 242.239C202.344 241.978 202.7 241.91 202.961 242.087L215.487 250.59C215.748 250.767 215.816 251.123 215.638 251.384C215.461 251.645 215.106 251.713 214.845 251.536L202.319 243.033C202.058 242.856 201.99 242.5 202.167 242.239Z" fill="#4F1600"/>
<path fill-rule="evenodd" clip-rule="evenodd" d="M207.842 240.492C208.025 240.235 208.381 240.174 208.639 240.357L221.348 249.362C221.605 249.545 221.666 249.901 221.483 250.159C221.301 250.416 220.944 250.477 220.687 250.295L207.978 241.289C207.721 241.107 207.66 240.75 207.842 240.492Z" fill="#4F1600"/>
<path d="M213.063 255.817H183.074V255.269C183.074 251.977 185.726 249.326 189.017 249.326H213.063V255.817Z" fill="#0D234B"/>
<path d="M300.103 255.817H210.96L228.971 205.76C230.251 202.24 233.589 199.863 237.337 199.863H312.629C316.331 199.863 318.937 203.566 317.657 207.04L300.103 255.817Z" fill="#ABE3BB"/>
<path fill-rule="evenodd" clip-rule="evenodd" d="M266.731 222.423C263.563 222.423 260.994 224.991 260.994 228.16C260.994 231.329 263.563 233.897 266.731 233.897C269.9 233.897 272.468 231.329 272.468 228.16C272.468 224.991 269.9 222.423 266.731 222.423ZM259.851 228.16C259.851 224.36 262.932 221.28 266.731 221.28C270.531 221.28 273.611 224.36 273.611 228.16C273.611 231.96 270.531 235.04 266.731 235.04C262.932 235.04 259.851 231.96 259.851 228.16Z" fill="#002F24"/>
<path d="M135.714 204.983L131.097 225.554L147.783 228.709L135.714 204.983Z" fill="#002F24"/>
<path fill-rule="evenodd" clip-rule="evenodd" d="M208.981 201.865C209.289 201.933 209.483 202.239 209.415 202.547L204.02 226.821C203.952 227.129 203.647 227.323 203.339 227.255C203.031 227.187 202.836 226.881 202.905 226.573L208.299 202.299C208.368 201.991 208.673 201.797 208.981 201.865Z" fill="#002F24"/>
<path fill-rule="evenodd" clip-rule="evenodd" d="M209.855 199.687C210.079 199.911 210.079 200.272 209.855 200.496L209.81 200.541C209.587 200.764 209.225 200.764 209.002 200.541C208.778 200.318 208.778 199.956 209.002 199.733L209.047 199.687C209.27 199.464 209.632 199.464 209.855 199.687Z" fill="#002F24"/>
<path d="M176.949 164.526H169.771C164.971 164.526 161.086 160.64 161.086 155.84V130.469H185.68V155.84C185.68 160.64 181.749 164.526 176.949 164.526Z" fill="#FFF1E3"/>
<path d="M193.68 106.103C193.68 106.103 182.206 122.149 158.023 121.189C158.023 121.189 156.606 107.52 160.811 100.891C165.017 94.2629 180.926 92.8 185.131 93.9429C189.428 95.0857 193.268 104.137 193.68 106.103Z" fill="#042048"/>
<path d="M174.389 142.537H163.417C152.446 142.537 143.577 133.669 143.577 122.697V105.371C143.577 97.0057 150.343 90.24 158.709 90.24H174.389V142.537Z" fill="black"/>
<path d="M202.594 95.4971C208.491 96.8686 211.417 104 208.491 109.897L201.634 123.657L192.354 111.223L202.594 95.4971Z" fill="black"/>
<path d="M189.337 109.577C201.986 109.577 212.24 102.291 212.24 93.3029C212.24 84.3148 201.986 77.0286 189.337 77.0286C176.688 77.0286 166.434 84.3148 166.434 93.3029C166.434 102.291 176.688 109.577 189.337 109.577Z" fill="black"/>
<path d="M184.4 149.029L176.537 148.8C164.331 148.434 154.731 139.291 155.143 128.366L155.783 111.497C156.194 100.571 166.434 91.9771 178.64 92.3429L181.246 92.4343C193.451 92.8 203.051 101.943 202.64 112.869L201.863 134.446C201.497 142.811 193.726 149.303 184.4 149.029Z" fill="#FFF1E3"/>
<path d="M200.857 99.7029C197.429 93.5771 191.531 89.2343 184.674 87.8171L171.829 85.1657L168.674 80.1829C154.229 86.1714 159.714 96.4114 159.714 96.4114C157.154 98.1029 155.6 100.983 155.6 104.046V105.326H149.52V125.257H160.309C162.777 125.257 164.789 123.246 164.789 120.777V112C168.857 110.171 171.691 106.057 171.691 101.303V99.1543C171.691 99.1543 180.971 113.92 205.154 107.474L200.857 99.7029Z" fill="black"/>
<path d="M154.183 128.594C157.642 128.594 160.446 125.79 160.446 122.331C160.446 118.873 157.642 116.069 154.183 116.069C150.724 116.069 147.92 118.873 147.92 122.331C147.92 125.79 150.724 128.594 154.183 128.594Z" fill="#FFF1E3"/>
<path fill-rule="evenodd" clip-rule="evenodd" d="M153.992 118.776C154.29 118.67 154.616 118.826 154.722 119.124L156.55 124.289C156.655 124.587 156.5 124.913 156.202 125.019C155.905 125.124 155.578 124.968 155.473 124.671L153.644 119.505C153.539 119.207 153.695 118.881 153.992 118.776Z" fill="#500715"/>
<path fill-rule="evenodd" clip-rule="evenodd" d="M151.234 123.063C151.234 122.747 151.49 122.491 151.806 122.491H155.371C155.687 122.491 155.943 122.747 155.943 123.063C155.943 123.378 155.687 123.634 155.371 123.634H151.806C151.49 123.634 151.234 123.378 151.234 123.063Z" fill="#500715"/>
<path fill-rule="evenodd" clip-rule="evenodd" d="M168.962 148.142C169.073 147.847 169.402 147.697 169.698 147.808C171.447 148.464 174.008 148.848 176.647 149.042C179.274 149.234 181.925 149.234 183.824 149.144C184.139 149.128 184.407 149.372 184.422 149.687C184.437 150.002 184.194 150.27 183.879 150.285C181.937 150.378 179.24 150.377 176.564 150.181C173.901 149.986 171.205 149.593 169.296 148.878C169.001 148.767 168.851 148.438 168.962 148.142Z" fill="#500715"/>
<path fill-rule="evenodd" clip-rule="evenodd" d="M185.68 149.143L185.68 150.286L185.566 150.286C185.491 150.286 185.381 150.286 185.238 150.286C184.952 150.287 184.537 150.289 184.02 150.291C182.987 150.297 181.549 150.309 179.928 150.331L179.912 149.189C181.537 149.166 182.978 149.154 184.014 149.149C184.532 149.146 184.948 149.144 185.235 149.144C185.378 149.143 185.49 149.143 185.565 149.143L185.68 149.143Z" fill="#500715"/>
</svg>
