<svg width="1000" height="560" viewBox="0 0 1000 560" fill="none" xmlns="http://www.w3.org/2000/svg">
<g clip-path="url(#clip0)">
<g opacity="0.2">
<path opacity="0.4" d="M621.9 231L937.6 151.8V345L619.8 242.2C619.8 242.2 618.4 232.8 621.9 231Z" fill="#00A0D6"/>
</g>
<g opacity="0.5">
<path d="M692.7 478.5H562C561.6 478.5 561.3 478.3 561 478C560.7 477.7 560.7 477.3 560.7 477L598 287.3C598.1 286.7 598.6 286.3 599.2 286.3H655.5C656.1 286.3 656.6 286.7 656.7 287.3L693.9 477C694 477.4 693.9 477.7 693.6 478C693.3 478.3 693.1 478.5 692.7 478.5ZM563.6 476H691.2L654.5 288.8H600.2L563.6 476Z" fill="#00A0D6"/>
<path d="M655.5 288.799H599.2C598.7 288.799 598.3 288.499 598.1 288.099L590 270.199C589.8 269.799 589.9 269.399 590.1 268.999C590.3 268.599 590.7 268.399 591.2 268.399H663.8C664.2 268.399 664.6 268.599 664.9 268.999C665.1 269.399 665.2 269.799 665 270.199L656.9 288.099C656.5 288.499 656 288.799 655.5 288.799ZM600 286.299H654.7L661.7 270.899H593L600 286.299Z" fill="#00A0D6"/>
<path d="M612.6 270.9C611.9 270.9 611.4 270.3 611.4 269.7V257.3C611.4 256.6 612 256.1 612.6 256.1C613.2 256.1 613.8 256.7 613.8 257.3V269.7C613.9 270.3 613.3 270.9 612.6 270.9Z" fill="#00A0D6"/>
<path d="M619.8 270.9C619.1 270.9 618.6 270.3 618.6 269.7V257.3C618.6 256.6 619.2 256.1 619.8 256.1C620.4 256.1 621 256.7 621 257.3V269.7C621.1 270.3 620.5 270.9 619.8 270.9Z" fill="#00A0D6"/>
<path d="M634.2 270.9C633.5 270.9 633 270.3 633 269.7V257.3C633 256.6 633.6 256.1 634.2 256.1C634.8 256.1 635.4 256.7 635.4 257.3V269.7C635.4 270.3 634.9 270.9 634.2 270.9Z" fill="#00A0D6"/>
<path d="M627 270.9C626.3 270.9 625.8 270.3 625.8 269.7V257.3C625.8 256.6 626.4 256.1 627 256.1C627.6 256.1 628.2 256.7 628.2 257.3V269.7C628.2 270.3 627.7 270.9 627 270.9Z" fill="#00A0D6"/>
<path d="M641.4 270.9C640.7 270.9 640.2 270.3 640.2 269.7V257.3C640.2 256.6 640.8 256.1 641.4 256.1C642 256.1 642.6 256.7 642.6 257.3V269.7C642.6 270.3 642.1 270.9 641.4 270.9Z" fill="#00A0D6"/>
<path d="M632.8 324.2H621.1C620.4 324.2 619.9 323.6 619.9 323V312.2C619.9 308.3 623.1 305.1 627 305.1C630.9 305.1 634.1 308.3 634.1 312.2V323C634.1 323.6 633.5 324.2 632.8 324.2ZM622.4 321.7H631.6V312.1C631.6 309.6 629.5 307.5 627 307.5C624.5 307.5 622.4 309.6 622.4 312.1V321.7Z" fill="#00A0D6"/>
<path d="M637.4 324.2H616.6C615.9 324.2 615.4 323.6 615.4 323C615.4 322.4 616 321.8 616.6 321.8H637.4C638.1 321.8 638.6 322.4 638.6 323C638.6 323.6 638.1 324.2 637.4 324.2Z" fill="#00A0D6"/>
<path d="M632.8 315.9H621.1C620.4 315.9 619.9 315.3 619.9 314.7C619.9 314.1 620.5 313.5 621.1 313.5H632.8C633.5 313.5 634 314.1 634 314.7C634 315.3 633.5 315.9 632.8 315.9Z" fill="#00A0D6"/>
<path d="M641.8 243.999H612.3C611.6 243.999 611.1 243.399 611.1 242.799V225.099C611.1 224.399 611.7 223.899 612.3 223.899H641.8C642.5 223.899 643 224.499 643 225.099V242.799C643 243.399 642.4 243.999 641.8 243.999ZM613.5 241.499H640.5V226.299H613.5V241.499Z" fill="#00A0D6"/>
<path d="M649.3 226.3H605.4C604.9 226.3 604.4 226 604.2 225.5C604 225 604.1 224.5 604.5 224.1L626.5 204.4C627 204 627.7 204 628.2 204.4L650.2 224.1C650.6 224.4 650.7 225 650.5 225.5C650.2 226 649.8 226.3 649.3 226.3ZM608.6 223.8H646L627.3 207L608.6 223.8Z" fill="#00A0D6"/>
<path d="M624.7 243.999H617.6C616.9 243.999 616.4 243.399 616.4 242.799V234.699C616.4 231.999 618.6 229.899 621.2 229.899C623.8 229.899 626 232.099 626 234.699V242.799C626 243.399 625.4 243.999 624.7 243.999ZM618.8 241.499H623.4V234.699C623.4 233.399 622.4 232.399 621.1 232.399C619.8 232.399 618.8 233.399 618.8 234.699V241.499Z" fill="#00A0D6"/>
<path d="M636.7 243.999H629.6C628.9 243.999 628.4 243.399 628.4 242.799V234.699C628.4 231.999 630.6 229.899 633.2 229.899C635.8 229.899 638 232.099 638 234.699V242.799C638 243.399 637.4 243.999 636.7 243.999ZM630.8 241.499H635.4V234.699C635.4 233.399 634.4 232.399 633.1 232.399C631.8 232.399 630.8 233.399 630.8 234.699V241.499Z" fill="#00A0D6"/>
<path d="M665.8 346.199H588C587.3 346.199 586.8 345.599 586.8 344.899C586.8 344.199 587.4 343.699 588 343.699H665.8C666.5 343.699 667 344.299 667 344.899C667 345.499 666.5 346.199 665.8 346.199Z" fill="#00A0D6"/>
<path d="M679.1 409H576.6C575.9 409 575.4 408.4 575.4 407.8C575.4 407.2 576 406.6 576.6 406.6H679.2C679.9 406.6 680.4 407.2 680.4 407.8C680.4 408.4 679.8 409 679.1 409Z" fill="#00A0D6"/>
<path d="M644.6 478.5H610.1C609.4 478.5 608.9 477.9 608.9 477.3V450C608.9 439.8 617.2 431.5 627.4 431.5C637.6 431.5 645.9 439.8 645.9 450V477.2C645.9 477.9 645.3 478.5 644.6 478.5ZM611.4 476H643.4V450C643.4 441.2 636.2 434 627.4 434C618.6 434 611.4 441.2 611.4 450V476Z" fill="#00A0D6"/>
<path d="M652.4 249.599H602.5C600.3 249.599 598.4 247.799 598.4 245.499C598.4 243.199 600.2 241.399 602.5 241.399H652.4C654.6 241.399 656.5 243.199 656.5 245.499C656.5 247.799 654.7 249.599 652.4 249.599ZM602.5 243.999C601.6 243.999 600.9 244.699 600.9 245.599C600.9 246.499 601.6 247.199 602.5 247.199H652.4C653.3 247.199 654 246.499 654 245.599C654 244.699 653.3 243.999 652.4 243.999H602.5Z" fill="#00A0D6"/>
<path d="M568.2 478.5H424.9C416.9 478.5 409.1 475.7 403 470.6L375.3 447.6C368 441.6 358.8 438.2 349.3 438.2H290.8C278.4 438.2 266.4 433 257.8 424.1L239.7 405.1C232.7 397.7 222.8 393.5 212.6 393.5H81.2C80.5 393.5 80 392.9 80 392.3C80 391.7 80.6 391.1 81.2 391.1H212.5C223.4 391.1 233.9 395.6 241.4 403.5L259.5 422.5C267.6 431 278.9 435.9 290.6 435.9H349.1C359.1 435.9 368.9 439.4 376.7 445.8L404.4 468.8C410.1 473.5 417.3 476.1 424.8 476.1H568.1C568.8 476.1 569.3 476.7 569.3 477.3C569.3 477.9 568.9 478.5 568.2 478.5Z" fill="#00A0D6"/>
<path d="M871.8 478.5H616.6C615.9 478.5 615.4 477.9 615.4 477.3C615.4 476.7 616 476.1 616.6 476.1H871.8C872.5 476.1 873 476.7 873 477.3C873 477.9 872.5 478.5 871.8 478.5Z" fill="#00A0D6"/>
<path d="M632.8 384.2H621.1C620.4 384.2 619.9 383.6 619.9 383V372.2C619.9 368.3 623.1 365.1 627 365.1C630.9 365.1 634.1 368.3 634.1 372.2V383C634.1 383.6 633.5 384.2 632.8 384.2ZM622.4 381.7H631.6V372.1C631.6 369.6 629.5 367.5 627 367.5C624.5 367.5 622.4 369.6 622.4 372.1V381.7Z" fill="#00A0D6"/>
<path d="M637.4 384.2H616.6C615.9 384.2 615.4 383.6 615.4 383C615.4 382.4 616 381.8 616.6 381.8H637.4C638.1 381.8 638.6 382.4 638.6 383C638.6 383.6 638.1 384.2 637.4 384.2Z" fill="#00A0D6"/>
<path d="M632.8 375.799H621.1C620.4 375.799 619.9 375.199 619.9 374.599C619.9 373.999 620.5 373.399 621.1 373.399H632.8C633.5 373.399 634 373.999 634 374.599C634 375.199 633.5 375.799 632.8 375.799Z" fill="#00A0D6"/>
<path d="M648.5 270.9H605.4C604.7 270.9 604.2 270.3 604.2 269.7V248.5C604.2 247.8 604.8 247.3 605.4 247.3H648.5C649.2 247.3 649.7 247.9 649.7 248.5V269.7C649.8 270.3 649.2 270.9 648.5 270.9ZM606.7 268.4H647.3V249.7H606.7V268.4Z" fill="#00A0D6"/>
<path d="M655.7 270.9H598.2C597.5 270.9 597 270.3 597 269.7V257.3C597 256.6 597.6 256.1 598.2 256.1H655.7C656.4 256.1 656.9 256.7 656.9 257.3V269.7C657 270.3 656.4 270.9 655.7 270.9ZM599.5 268.4H654.5V258.5H599.5V268.4Z" fill="#00A0D6"/>
<path d="M598.2 258.4C597.5 258.4 597 257.8 597 257.2V253C597 252.3 597.6 251.8 598.2 251.8C598.8 251.8 599.4 252.4 599.4 253V257.2C599.5 257.9 598.9 258.4 598.2 258.4Z" fill="#00A0D6"/>
<path d="M655.7 258.4C655 258.4 654.5 257.8 654.5 257.2V253C654.5 252.3 655.1 251.8 655.7 251.8C656.3 251.8 656.9 252.4 656.9 253V257.2C657 257.9 656.4 258.4 655.7 258.4Z" fill="#00A0D6"/>
<path d="M656.3 522.2H612.7C612 522.2 611.5 521.6 611.5 521C611.5 520.4 612.1 519.8 612.7 519.8H656.3C657 519.8 657.5 520.4 657.5 521C657.5 521.6 656.9 522.2 656.3 522.2Z" fill="#00A0D6"/>
<path d="M609.1 522.2C608.3 522.2 607.8 521.6 607.8 521C607.8 520.4 608.4 519.8 609 519.8C609.6 519.8 610.3 520.4 610.3 521C610.3 521.6 609.8 522.2 609.1 522.2Z" fill="#00A0D6"/>
<path d="M725.199 497.799H668.599C667.899 497.799 667.399 497.199 667.399 496.599C667.399 495.999 667.999 495.399 668.599 495.399H725.199C725.899 495.399 726.399 495.999 726.399 496.599C726.399 497.199 725.899 497.799 725.199 497.799Z" fill="#00A0D6"/>
<path d="M731.7 532.299H701.8C701.1 532.299 700.6 531.699 700.6 531.099C700.6 530.499 701.2 529.899 701.8 529.899H731.7C732.4 529.899 732.9 530.499 732.9 531.099C732.9 531.699 732.4 532.299 731.7 532.299Z" fill="#00A0D6"/>
<path d="M743.7 532.299H737.3C736.6 532.299 736.1 531.699 736.1 531.099C736.1 530.499 736.7 529.899 737.3 529.899H743.7C744.4 529.899 744.9 530.499 744.9 531.099C744.9 531.699 744.4 532.299 743.7 532.299Z" fill="#00A0D6"/>
<path d="M833.3 512.599H764.8C764.1 512.599 763.6 511.999 763.6 511.399C763.6 510.799 764.2 510.199 764.8 510.199H833.3C834 510.199 834.5 510.799 834.5 511.399C834.5 511.999 834 512.599 833.3 512.599Z" fill="#00A0D6"/>
<path d="M846.6 512.599H838.3C837.6 512.599 837.1 511.999 837.1 511.399C837.1 510.799 837.7 510.199 838.3 510.199H846.6C847.3 510.199 847.8 510.799 847.8 511.399C847.8 511.999 847.2 512.599 846.6 512.599Z" fill="#00A0D6"/>
<path d="M910 478.5H880C879.3 478.5 878.8 477.9 878.8 477.3C878.8 476.7 879.4 476.1 880 476.1H910C910.7 476.1 911.2 476.7 911.2 477.3C911.2 477.9 910.7 478.5 910 478.5Z" fill="#00A0D6"/>
<path d="M914.3 478.5C913.5 478.5 913 477.9 913 477.3C913 476.7 913.6 476.1 914.2 476.1C914.8 476.1 915.5 476.7 915.5 477.3C915.5 477.9 915 478.5 914.3 478.5Z" fill="#00A0D6"/>
<path d="M627.1 202.1C624.1 202.1 621.6 199.6 621.6 196.6C621.6 193.6 624.1 191.1 627.1 191.1C630.1 191.1 632.6 193.6 632.6 196.6C632.6 199.6 630.2 202.1 627.1 202.1ZM627.1 193.5C625.4 193.5 624.1 194.9 624.1 196.5C624.1 198.1 625.5 199.5 627.1 199.5C628.7 199.5 630.1 198.1 630.1 196.5C630.1 194.9 628.8 193.5 627.1 193.5Z" fill="#00A0D6"/>
<path d="M212.801 392.399C212.101 392.399 211.601 391.799 211.601 391.199V246.399C211.601 245.699 212.201 245.199 212.801 245.199C213.401 245.199 214.001 245.799 214.001 246.399V391.099C214.101 391.799 213.501 392.399 212.801 392.399Z" fill="#00A0D6"/>
<path d="M192.4 273.5C191.7 273.5 191.2 272.9 191.2 272.3C191.2 271.6 191.7 271 192.4 271C193.2 271 211.7 270.5 211.6 246.4C211.6 245.7 212.2 245.1 212.8 245.1C213.5 245.1 214 245.7 214 246.3C214.1 267.7 199.9 273.5 192.4 273.5Z" fill="#00A0D6"/>
<path d="M233.3 273.499C225.8 273.399 211.5 267.699 211.6 246.399C211.6 245.699 212.2 245.199 212.8 245.199C213.5 245.199 214 245.799 214 246.499C214 270.699 232.4 271.099 233.2 271.099C233.9 271.099 234.4 271.699 234.4 272.399C234.6 272.999 234 273.499 233.3 273.499Z" fill="#00A0D6"/>
<path d="M192.4 273.5C191.7 273.5 191.2 272.9 191.2 272.3C191.2 271.6 191.7 271 192.4 271C193.2 271 211.7 270.5 211.6 246.4C211.6 245.7 212.2 245.1 212.8 245.1C213.5 245.1 214 245.7 214 246.3C214.1 267.7 199.9 273.5 192.4 273.5Z" fill="#00A0D6"/>
<path d="M233.3 299.999C225.8 299.899 211.5 294.199 211.6 272.899C211.6 272.199 212.2 271.699 212.8 271.699C213.5 271.699 214 272.299 214 272.999C214 297.199 232.4 297.599 233.2 297.599C233.9 297.599 234.4 298.199 234.4 298.899C234.6 299.399 234 299.999 233.3 299.999Z" fill="#00A0D6"/>
<path d="M192.4 300C191.7 300 191.2 299.4 191.2 298.8C191.2 298.1 191.7 297.5 192.4 297.5C193.2 297.5 211.7 297 211.6 272.9C211.6 272.2 212.2 271.6 212.8 271.6C213.5 271.6 214 272.2 214 272.8C214.1 294.2 199.9 299.9 192.4 300Z" fill="#00A0D6"/>
<path d="M233.3 327.999C225.8 327.899 211.5 322.199 211.6 300.899C211.6 300.199 212.2 299.699 212.8 299.699C213.5 299.699 214 300.299 214 300.999C214 325.199 232.4 325.599 233.2 325.599C233.9 325.599 234.4 326.199 234.4 326.899C234.6 327.499 234 327.999 233.3 327.999Z" fill="#00A0D6"/>
<path d="M192.4 328C191.7 328 191.2 327.4 191.2 326.8C191.2 326.1 191.7 325.5 192.4 325.5C193.2 325.5 211.7 325 211.6 300.9C211.6 300.2 212.2 299.6 212.8 299.6C213.5 299.6 214 300.2 214 300.8C214.1 322.2 199.9 328 192.4 328Z" fill="#00A0D6"/>
<path d="M233.3 359.199C225.8 359.099 211.5 353.399 211.6 332.099C211.6 331.399 212.2 330.899 212.8 330.899C213.5 330.899 214 331.499 214 332.199C214 356.399 232.4 356.799 233.2 356.799C233.9 356.799 234.4 357.399 234.4 358.099C234.6 358.599 234 359.199 233.3 359.199Z" fill="#00A0D6"/>
<path d="M192.4 359.2C191.7 359.2 191.2 358.6 191.2 358C191.2 357.3 191.7 356.7 192.4 356.7C193.2 356.7 211.7 356.2 211.6 332.1C211.6 331.4 212.2 330.8 212.8 330.8C213.5 330.8 214 331.4 214 332C214.1 353.4 199.9 359.1 192.4 359.2Z" fill="#00A0D6"/>
<path d="M729.4 478.199C728.7 478.199 728.2 477.599 728.2 476.999V364.099C728.2 363.399 728.8 362.899 729.4 362.899C730 362.899 730.6 363.499 730.6 364.099V476.999C730.7 477.699 730.1 478.199 729.4 478.199Z" fill="#00A0D6"/>
<path d="M713.5 385.599C712.8 385.599 712.3 384.999 712.3 384.399C712.3 383.699 712.8 383.099 713.5 383.099C714.1 383.099 728.3 382.699 728.2 364.199C728.2 363.499 728.8 362.899 729.4 362.899C730.1 362.899 730.6 363.499 730.6 364.099C730.7 385.199 713.6 385.599 713.5 385.599Z" fill="#00A0D6"/>
<path d="M745.4 385.599C745.2 385.599 728.1 385.199 728.2 364.199C728.2 363.499 728.8 362.999 729.4 362.999C730.1 362.999 730.6 363.599 730.6 364.299C730.6 382.799 744.7 383.199 745.3 383.199C746 383.199 746.5 383.799 746.5 384.499C746.6 384.999 746.1 385.599 745.4 385.599Z" fill="#00A0D6"/>
<path d="M713.5 385.599C712.8 385.599 712.3 384.999 712.3 384.399C712.3 383.699 712.8 383.099 713.5 383.099C714.1 383.099 728.3 382.699 728.2 364.199C728.2 363.499 728.8 362.899 729.4 362.899C730.1 362.899 730.6 363.499 730.6 364.099C730.7 385.199 713.6 385.599 713.5 385.599Z" fill="#00A0D6"/>
<path d="M745.4 406.2C745.2 406.2 728.1 405.8 728.2 384.8C728.2 384.1 728.8 383.6 729.4 383.6C730.1 383.6 730.6 384.2 730.6 384.9C730.6 403.4 744.7 403.8 745.3 403.8C746 403.8 746.5 404.4 746.5 405.1C746.6 405.6 746.1 406.2 745.4 406.2Z" fill="#00A0D6"/>
<path d="M713.5 406.199C712.8 406.199 712.3 405.599 712.3 404.999C712.3 404.299 712.8 403.699 713.5 403.699C714.1 403.699 728.3 403.299 728.2 384.799C728.2 384.099 728.8 383.499 729.4 383.499C730.1 383.499 730.6 384.099 730.6 384.699C730.7 405.799 713.6 406.199 713.5 406.199Z" fill="#00A0D6"/>
<path d="M745.4 428.099C745.2 428.099 728.1 427.699 728.2 406.699C728.2 405.999 728.8 405.499 729.4 405.499C730.1 405.499 730.6 406.099 730.6 406.799C730.6 425.299 744.7 425.699 745.3 425.699C746 425.699 746.5 426.299 746.5 426.999C746.6 427.499 746.1 428.099 745.4 428.099Z" fill="#00A0D6"/>
<path d="M713.5 428.099C712.8 428.099 712.3 427.499 712.3 426.899C712.3 426.199 712.8 425.599 713.5 425.599C714.1 425.599 728.3 425.199 728.2 406.699C728.2 405.999 728.8 405.399 729.4 405.399C730.1 405.399 730.6 405.999 730.6 406.599C730.7 427.699 713.6 428.099 713.5 428.099Z" fill="#00A0D6"/>
<path d="M745.4 452.299C745.2 452.299 728.1 451.899 728.2 430.899C728.2 430.199 728.8 429.699 729.4 429.699C730.1 429.699 730.6 430.299 730.6 430.999C730.6 449.499 744.7 449.899 745.3 449.899C746 449.899 746.5 450.499 746.5 451.199C746.6 451.799 746.1 452.299 745.4 452.299Z" fill="#00A0D6"/>
<path d="M713.5 452.3C712.8 452.3 712.3 451.7 712.3 451.1C712.3 450.4 712.8 449.8 713.5 449.8C714.1 449.8 728.3 449.4 728.2 430.9C728.2 430.2 728.8 429.6 729.4 429.6C730.1 429.6 730.6 430.2 730.6 430.8C730.7 452 713.6 452.3 713.5 452.3Z" fill="#00A0D6"/>
<path d="M349.3 438.199H285.4C284.7 438.199 284.2 437.599 284.2 436.999V382.399C284.2 381.699 284.8 381.199 285.4 381.199H349.3C350 381.199 350.5 381.799 350.5 382.399V436.999C350.5 437.699 350 438.199 349.3 438.199ZM286.6 435.699H348V383.599H286.6V435.699Z" fill="#00A0D6"/>
<path d="M252.5 418C251.8 418 251.3 417.4 251.3 416.8V382.5C251.3 382.2 251.4 381.9 251.6 381.6L268 364.5C268.5 364 269.3 364 269.8 364.5L286.2 381.6C286.7 382.1 286.7 382.9 286.2 383.4C285.7 383.9 284.9 383.9 284.4 383.4L268.9 367.2L253.7 383V416.8C253.8 417.4 253.2 418 252.5 418Z" fill="#00A0D6"/>
<path d="M349.3 383.6C349 383.6 348.6 383.5 348.4 383.2L333.7 366.5H269C268.3 366.5 267.8 365.9 267.8 365.3C267.8 364.7 268.4 364.1 269 364.1H334.2C334.6 364.1 334.9 364.3 335.1 364.5L350.2 381.6C350.7 382.1 350.6 382.9 350.1 383.4C349.9 383.5 349.6 383.6 349.3 383.6Z" fill="#00A0D6"/>
<path d="M307.4 413.899H296.6C295.9 413.899 295.4 413.299 295.4 412.699V401.899C295.4 401.199 296 400.699 296.6 400.699H307.4C308.1 400.699 308.6 401.299 308.6 401.899V412.699C308.7 413.299 308.1 413.899 307.4 413.899ZM297.8 411.399H306.1V403.099H297.8V411.399Z" fill="#00A0D6"/>
<path d="M333.1 413.899H322.3C321.6 413.899 321.1 413.299 321.1 412.699V401.899C321.1 401.199 321.7 400.699 322.3 400.699H333.1C333.8 400.699 334.3 401.299 334.3 401.899V412.699C334.4 413.299 333.8 413.899 333.1 413.899ZM323.5 411.399H331.8V403.099H323.5V411.399Z" fill="#00A0D6"/>
<path d="M275 435.6C274.3 435.6 273.8 435 273.8 434.4V406H263.1V424.9C263.1 425.6 262.5 426.1 261.9 426.1C261.3 426.1 260.7 425.5 260.7 424.9V404.7C260.7 404 261.3 403.5 261.9 403.5H275C275.7 403.5 276.2 404.1 276.2 404.7V434.4C276.3 435 275.7 435.6 275 435.6Z" fill="#00A0D6"/>
<path d="M292.6 366.5H285.3C284.6 366.5 284.1 365.9 284.1 365.3V350.2C284.1 349.5 284.7 349 285.3 349H292.6C293.3 349 293.8 349.6 293.8 350.2V365.3C293.9 365.9 293.3 366.5 292.6 366.5ZM286.6 364H291.4V351.4H286.6V364Z" fill="#00A0D6"/>
</g>
<path d="M690.1 116.3C690.1 101.7 701.9 90 716.4 90C731 90 742.7 101.8 742.7 116.3H690.1Z" fill="white"/>
<path d="M639.3 116.3C639.3 101.7 651.1 90 665.6 90C680.2 90 692 101.8 692 116.3H639.3Z" fill="white"/>
<path d="M780.6 357.2C780.6 342.6 792.4 330.9 806.9 330.9C821.5 330.9 833.2 342.7 833.2 357.2H780.6Z" fill="white"/>
<path d="M372 499.3H371.3C370.6 499.3 370.1 498.7 370.1 498.1C370.1 497.5 370.7 496.9 371.3 496.9H372C372.7 496.9 373.2 497.5 373.2 498.1C373.2 498.7 372.7 499.3 372 499.3Z" fill="#8EDDF9"/>
<path d="M362.1 437.801L351.2 461.901C337.3 492.801 334.2 527.501 342.4 560.301H460.1L470.4 468.201L362.1 437.801Z" fill="#005D92"/>
<path d="M399 240.701L358.3 222.901L367.1 196.101L405.8 219.201L399 240.701ZM361.3 221.501L397.4 237.301L402.8 220.401L368.5 199.901L361.3 221.501Z" fill="black"/>
<path d="M280.7 122L397.8 95.0004C427.8 88.1004 456.5 110.9 456.5 141.7C456.5 169 433.8 190.7 406.6 189.6L396.4 189.2V250.3H295.3C259.4 250.3 230.3 221.2 230.3 185.3C230.3 155.1 251.2 128.8 280.7 122Z" fill="#F89142"/>
<path d="M392.499 279.701C380.299 279.701 370.499 264.701 371.199 246.701L373.399 186.301H413.899V248.301C413.799 265.701 404.199 279.701 392.499 279.701Z" fill="#FFC8A3"/>
<path d="M407.599 220.001L400.899 219.801C379.599 219.101 362.899 201.301 363.599 179.901L364.499 153.101C365.199 131.801 382.999 115.101 404.399 115.801C425.699 116.501 442.399 134.301 441.699 155.701L440.599 189.201C439.999 206.801 425.199 220.601 407.599 220.001Z" fill="#FFC8A3"/>
<path fill-rule="evenodd" clip-rule="evenodd" d="M361.7 167.901C405.4 169.801 426.2 136.401 426.2 136.401L426.2 136.401C426.2 136.401 436.4 153.001 450.8 153.701C450.8 153.701 450 147.901 442.2 135.901C434.4 123.901 417.6 114.501 417.6 114.501L416.39 115.531C414.63 113.346 412.738 111.705 410.8 111.101C403.2 108.701 374.5 111.801 366.8 125.601C359.2 139.501 361.7 167.901 361.7 167.901Z" fill="#F89142"/>
<path d="M361.5 184.7C367.851 184.7 373 179.551 373 173.2C373 166.849 367.851 161.7 361.5 161.7C355.149 161.7 350 166.849 350 173.2C350 179.551 355.149 184.7 361.5 184.7Z" fill="#FFC8A3"/>
<path d="M364.8 178.4C364.3 178.4 363.8 178.1 363.6 177.6L360.3 168.1C360.1 167.4 360.4 166.7 361.1 166.5C361.8 166.3 362.5 166.6 362.7 167.3L366 176.8C366.2 177.5 365.9 178.2 365.2 178.4C365.1 178.3 365 178.4 364.8 178.4Z" fill="#500715"/>
<path d="M363.699 175.701H357.099C356.399 175.701 355.899 175.101 355.899 174.501C355.899 173.901 356.499 173.301 357.099 173.301H363.699C364.399 173.301 364.899 173.901 364.899 174.501C364.899 175.101 364.399 175.701 363.699 175.701Z" fill="#500715"/>
<path d="M372 220.6L419.2 241.2C423.7 243.2 426 248.3 424.5 253L422.7 258.7L462.4 310.2C467.3 316.6 470 324.4 470 332.5L470.4 468.2L344.6 456C336.2 455.2 329.7 448.1 329.7 439.6V328.6C329.7 292.1 339.6 256.2 358.4 224.9C361.3 220.3 367.1 218.5 372 220.6Z" fill="#00A0D6"/>
<path d="M422.799 335.9L422.399 384L454.999 398.4L422.799 335.9Z" fill="#0D234B"/>
<path d="M568.399 454.401H591.599C597.799 454.401 602.799 449.401 602.799 443.201V340.501C602.799 334.301 597.799 329.301 591.599 329.301H568.399V454.401Z" fill="#002F24"/>
<path d="M438.3 426.801V340.501C438.3 334.301 443.3 329.301 449.5 329.301H567.1C573.3 329.301 578.3 334.301 578.3 340.501V454.401H478.2" fill="#5EC584"/>
<path d="M552.1 376.801H532.8C526.7 376.801 521.8 371.901 521.8 365.801C521.8 359.701 526.7 354.801 532.8 354.801H552.1C558.2 354.801 563.1 359.701 563.1 365.801C563.1 371.801 558.2 376.801 552.1 376.801Z" fill="#ABE3BB"/>
<path d="M503.8 376.701C509.875 376.701 514.8 371.776 514.8 365.701C514.8 359.626 509.875 354.701 503.8 354.701C497.725 354.701 492.8 359.626 492.8 365.701C492.8 371.776 497.725 376.701 503.8 376.701Z" fill="#ABE3BB"/>
<path d="M384.2 246C397.9 246 419.9 256.7 420.7 270.4L411.5 379.4L501.5 417.8C505.7 419.6 508.4 423.7 508.4 428.2V450C508.4 457.6 501.2 463.1 493.9 461.1L394.5 433.9C382.1 430.4 373.1 419.7 371.9 406.9L358.7 274.6C356.9 259.3 368.9 246 384.2 246Z" fill="#00A0D6"/>
<path d="M465.4 329.301H541.4V257.301H458.2V322.001C458.1 326.001 461.3 329.301 465.4 329.301Z" fill="#005E41"/>
<path d="M562.6 329.301H539.2V254.601H569.9V322.001C569.9 326.001 566.7 329.301 562.6 329.301Z" fill="#002F24"/>
<path d="M569.2 269.7H557C552.8 269.7 549.5 266.3 549.5 262.2C549.5 258 552.9 254.7 557 254.7H569.2C573.4 254.7 576.7 258.1 576.7 262.2C576.7 266.3 573.4 269.7 569.2 269.7Z" fill="#002F24"/>
<path d="M458.1 270.9L539.2 282.7V269.7H458.1V270.9Z" fill="#002F24"/>
<path d="M522.3 320.301H506.2C502 320.301 498.7 316.901 498.7 312.801C498.7 308.601 502.1 305.301 506.2 305.301H522.3C526.5 305.301 529.8 308.701 529.8 312.801C529.8 316.901 526.4 320.301 522.3 320.301Z" fill="#5EC584"/>
<path d="M458.8 269.7H540.5C544.7 269.7 548 266.3 548 262.2C548 258 544.6 254.7 540.5 254.7H458.8C454.6 254.7 451.3 258.1 451.3 262.2C451.3 266.3 454.7 269.7 458.8 269.7Z" fill="#005E41"/>
<path d="M366.6 267.5C366.6 267.5 326.7 284.9 304.1 267.2C281.5 249.5 291.8 209.1 308.7 200.9C327.9 191.5 354.7 214.6 387.1 227.2L366.6 267.5Z" fill="#00A0D6"/>
<path d="M574.2 449.4L555.6 445.7C553 445.2 550.5 444 548.5 442.2L541.5 436C541.3 435.8 541.2 435.6 541.2 435.3C541.2 434.7 541.7 434.3 542.2 434.4L554.6 435.9C557.5 436.3 560.3 434.3 560.9 431.4C561.2 430.1 560.3 428.8 559 428.6L543.2 425.6C541.6 425.3 540 425.3 538.5 425.7L522.5 429.9C522.1 430 516.6 431.5 516.1 431.4L466.3 409L490 451.5L510.7 457.3C510.7 457.3 527.6 468.1 531.3 469.1L540.9 471.7C543.6 472.4 546.4 471.1 547.5 468.5L548 467.2L553.4 468.2C556 468.7 558.5 467.2 559.3 464.7L559.8 463.1L561.6 463.4C564.2 463.9 566.8 462.3 567.5 459.8L568.3 457.2L572.6 457.9C575 458.3 577.2 456.7 577.6 454.3C578 452.1 576.5 449.8 574.2 449.4Z" fill="#FFC8A3"/>
<path d="M434.5 390.101L501.4 417.801C505.7 419.601 508.4 423.701 508.4 428.301V450.001C508.4 457.501 501.3 463.001 494 461.001L418.6 440.501L434.5 390.101Z" fill="#00A0D6"/>
<path d="M407.199 221.6C402.399 221.6 395.899 220.7 389.799 217.2C389.299 216.9 389.199 216.3 389.399 215.8C389.699 215.3 390.299 215.2 390.799 215.4C399.599 220.5 409.199 219.6 412.999 219.1C413.499 219 414.099 219.4 414.099 219.9C414.199 220.4 413.799 221 413.299 221C411.899 221.4 409.799 221.6 407.199 221.6Z" fill="#4F1600"/>
<path d="M441.099 561.6H440.999C440.299 561.5 439.799 560.9 439.899 560.2L443.299 528.1L448.399 523C448.899 522.5 449.699 522.5 450.199 523C450.699 523.5 450.699 524.3 450.199 524.8L445.699 529.3L442.399 560.5C442.199 561.1 441.699 561.6 441.099 561.6Z" fill="#1D1D1B"/>
<path d="M371.8 408.101C371.2 408.101 370.6 407.601 370.6 407.001L363.2 333.501C363.1 332.801 363.6 332.201 364.3 332.101C365 332.001 365.6 332.501 365.7 333.201L373.1 406.701C373.2 407.401 372.7 408.001 372 408.101C371.9 408.101 371.8 408.101 371.8 408.101Z" fill="#0D234B"/>
<path d="M470.5 468.301L474.2 437.801L446.5 466.001L463.5 467.601" fill="#00A0D6"/>
<path d="M338 274.701C338 274.701 360.9 272.001 380.1 265.801L331.3 304.301C331.3 304.301 334 280.201 338 274.701Z" fill="#0D234B"/>
<path d="M513.1 161.7C513.1 147.1 524.9 135.4 539.4 135.4C554 135.4 565.7 147.2 565.7 161.7H513.1Z" fill="white"/>
</g>
<defs>
<clipPath id="clip0">
<rect width="1000" height="560" fill="white"/>
</clipPath>
</defs>
</svg>
