<svg width="120" height="23" viewBox="0 0 120 23" fill="none" xmlns="http://www.w3.org/2000/svg">
<path fill-rule="evenodd" clip-rule="evenodd" d="M119.774 0.864746V18.9625H114.565V17.6096C114.565 17.6096 113.211 19.4124 110.248 19.4124C105.908 19.4124 103.454 16.1332 103.454 12.0288C103.454 8.02299 106.264 4.71976 110.632 4.71976C113.313 4.71976 114.565 6.02133 114.565 6.02133V1.86557L119.774 0.864746ZM48.9313 2.04039H54.1403V5.14478H58.9682L56.5927 9.4505H54.1403V18.9625H48.9313V2.04039ZM25.4873 19.3867C29.5986 19.3867 33.9651 17.1845 33.9651 11.9285C33.9651 6.87137 29.7515 4.6949 25.6656 4.6949C21.4775 4.6949 17.187 6.94677 17.187 12.1539C17.187 17.2351 21.4014 19.3867 25.4873 19.3867ZM25.5634 9.17461C27.2746 9.17461 28.4239 10.3511 28.4239 12.0793C28.4239 13.7048 27.3 14.9078 25.5634 14.9078C23.853 14.9078 22.6783 13.7048 22.6783 12.0793C22.6783 10.3511 23.8276 9.17461 25.5634 9.17461ZM42.4699 10.1506C42.2398 10.1164 42.0274 10.087 41.8321 10.0599C40.5959 9.88828 40.0445 9.81175 40.0445 9.25083C40.0445 8.69987 40.7332 8.47369 42.087 8.47369C44.3856 8.47369 46.4028 9.22514 46.4028 9.22514L47.3223 5.34528C47.3223 5.34528 45.1006 4.71976 42.1377 4.71976C37.1586 4.71976 34.5532 6.59714 34.5532 9.60045C34.5532 11.9285 35.9577 13.3055 40.0699 13.8308C41.8065 14.0561 42.4445 14.1555 42.4445 14.7819C42.4445 15.3834 41.7549 15.5831 40.5549 15.5831C37.9496 15.5831 35.498 14.5068 35.498 14.5068L34.451 18.5126C34.451 18.5126 36.9025 19.3627 40.0952 19.3627C45.458 19.3627 47.9349 17.5093 47.9349 14.4811C47.9349 12.0793 46.6065 10.7769 42.4699 10.1506ZM68.749 4.6949C65.7101 4.6949 64.6115 6.49689 64.6115 6.49689V5.14478H59.4017V18.9625H64.6115V11.878C64.6115 10.1266 65.2766 9.32456 66.8839 9.32456C68.493 9.32456 68.7237 10.627 68.7237 12.279V18.9625H73.9834V10.4762C73.9834 6.67171 72.1208 4.6949 68.749 4.6949ZM111.832 9.20029C113.543 9.20029 114.717 10.4016 114.717 12.0288C114.717 13.7546 113.567 14.9319 111.832 14.9319C110.121 14.9319 108.973 13.7546 108.973 12.0288C108.973 10.4016 110.097 9.20029 111.832 9.20029ZM101.464 9.54992C99.7259 9.54992 98.4254 10.2011 98.4254 12.3039V18.9625H93.2147V5.14478H98.4254V6.7471C98.4254 6.7471 99.2163 4.94428 102.128 4.94428C103.021 4.94428 103.354 5.09424 103.354 5.09424L103.225 9.80012C103.225 9.80012 102.535 9.54992 101.464 9.54992ZM10.8025 12.0793C10.8025 10.3511 9.65324 9.17461 7.94197 9.17461C6.2062 9.17461 5.05606 10.3511 5.05606 12.0793C5.05606 13.7048 6.2307 14.9078 7.94197 14.9078C9.67944 14.9078 10.8025 13.7048 10.8025 12.0793ZM9.14282 19.3867C13.5093 19.3867 16.3192 16.0851 16.3192 12.0793C16.3192 7.97328 13.8676 4.6949 9.52563 4.6949C6.56366 4.6949 5.20986 6.49689 5.20986 6.49689V5.14478H0V22.941H5.20986V18.086C5.20986 18.086 6.46141 19.3867 9.14282 19.3867ZM86.4346 12.0793C86.4346 10.3511 85.2854 9.17461 83.5741 9.17461C81.8375 9.17461 80.6873 10.3511 80.6873 12.0793C80.6873 13.7048 81.8637 14.9078 83.5741 14.9078C85.3115 14.9078 86.4346 13.7048 86.4346 12.0793ZM83.4972 19.3867C87.6085 19.3867 91.9758 17.1845 91.9758 11.9285C91.9758 6.87137 87.7623 4.6949 83.6763 4.6949C79.4873 4.6949 75.1977 6.94677 75.1977 12.1539C75.1977 17.2351 79.4113 19.3867 83.4972 19.3867Z" fill="white"/>
</svg>
